<?xml version="1.0" standalone="no"?>
<!DOCTYPE svg PUBLIC "-//W3C//DTD SVG 20010904//EN"
 "http://www.w3.org/TR/2001/REC-SVG-20010904/DTD/svg10.dtd">
<svg version="1.0" xmlns="http://www.w3.org/2000/svg"
 width="3859.000000pt" height="1215.000000pt" viewBox="0 0 3859.000000 1215.000000"
 preserveAspectRatio="xMidYMid meet">

<g transform="translate(0.000000,1215.000000) scale(0.100000,-0.100000)"
fill="#000000" stroke="none">
<path d="M8394 11551 c-132 -60 -170 -240 -73 -346 18 -20 -9 -66 -1766 -3040
l-1784 -3020 -83 -6 c-101 -6 -164 -35 -227 -104 -64 -69 -85 -124 -86 -220 0
-71 4 -88 32 -145 l32 -65 -1059 -1795 -1059 -1795 -53 3 c-72 5 -129 -19
-178 -75 -44 -50 -55 -88 -48 -169 15 -182 252 -251 375 -110 65 73 71 182 15
262 -18 24 -32 46 -32 48 0 4 349 598 355 604 2 2 70 -21 152 -51 751 -277
1665 -429 2378 -397 1327 61 2598 490 3665 1238 662 464 1245 1032 1644 1602
269 383 517 861 657 1265 79 226 59 354 -65 417 -54 28 -150 33 -351 19 -128
-10 -2159 -239 -5315 -600 -190 -22 -346 -39 -347 -38 -1 2 2092 1210 5602
3234 860 496 870 502 890 483 72 -67 220 -66 293 3 71 66 88 185 39 269 -64
109 -214 140 -319 66 -16 -11 -40 -40 -55 -66 -23 -39 -28 -59 -28 -115 l0
-67 -280 -161 c-215 -124 -281 -158 -287 -148 -175 306 -364 552 -619 808
-336 336 -696 595 -1129 812 -363 181 -781 326 -1152 399 l-57 11 76 127 c41
70 118 200 170 290 l96 162 64 0 c139 0 237 107 219 240 -19 141 -174 229
-302 171z m151 -50 c89 -40 125 -129 87 -213 -27 -61 -71 -91 -141 -96 -65 -4
-109 19 -149 78 -20 29 -23 44 -20 93 5 69 27 103 88 135 53 27 82 27 135 3z
m3328 -2435 c72 -30 119 -124 96 -194 -33 -105 -147 -152 -241 -100 -92 52
-111 166 -41 249 47 56 120 73 186 45z m-4979 -942 c261 -77 583 -222 777
-352 272 -184 532 -436 686 -668 30 -45 54 -87 52 -93 -3 -9 -672 -396 -3232
-1872 l-207 -120 -38 30 c-20 17 -47 39 -58 48 l-22 18 427 720 c234 397 630
1067 880 1490 250 424 465 787 478 809 l25 38 56 -7 c31 -4 110 -23 176 -41z
m-2121 -3191 c65 -33 87 -130 44 -194 -98 -147 -317 -23 -241 137 19 41 33 53
81 69 40 14 70 11 116 -12z m455 -378 c136 -24 425 -76 642 -115 217 -39 620
-111 895 -160 275 -49 664 -119 864 -155 200 -36 366 -67 369 -70 17 -16 -159
-225 -326 -386 -287 -278 -630 -513 -1070 -733 -533 -267 -941 -381 -1482
-417 -467 -30 -1023 45 -1498 203 -123 40 -153 54 -149 67 4 16 1012 1730
1026 1744 4 4 34 -5 67 -20 46 -21 74 -27 134 -27 66 -1 84 3 141 31 35 18 75
44 89 58 13 14 30 25 38 25 7 0 125 -20 260 -45z m-2898 -3608 c50 -26 90 -90
90 -141 -1 -46 -33 -110 -71 -136 -49 -36 -133 -39 -178 -8 -59 40 -76 72 -76
141 0 75 27 120 89 148 55 25 94 24 146 -4z"/>
<path d="M6405 10683 c-650 -43 -1319 -181 -1910 -395 -1365 -495 -2624 -1463
-3370 -2593 -308 -466 -532 -949 -665 -1432 -206 -748 -208 -1487 -5 -2186
216 -747 666 -1407 1320 -1934 219 -177 652 -451 674 -427 18 19 721 1218 719
1224 -2 4 -60 46 -130 93 -172 115 -261 188 -403 331 -337 339 -539 732 -599
1162 -81 588 47 1245 345 1764 302 528 731 961 1311 1324 475 298 930 458
1578 555 232 35 465 53 754 60 l279 6 703 1190 703 1190 -44 11 c-55 14 -269
41 -430 54 -109 9 -710 11 -830 3z"/>
<path d="M17943 8790 c-615 -64 -1140 -481 -1333 -1057 -63 -189 -74 -266 -75
-503 0 -235 8 -295 67 -480 146 -460 518 -838 973 -989 360 -119 777 -103
1108 44 l55 24 408 -110 c310 -83 417 -108 444 -104 45 9 106 70 115 116 5 27
-18 127 -103 444 l-110 409 24 54 c35 80 80 227 100 327 26 128 26 444 1 570
-131 644 -624 1131 -1257 1239 -111 19 -313 27 -417 16z m378 -306 c334 -63
621 -249 807 -522 140 -204 207 -404 219 -652 9 -194 -20 -364 -93 -538 -77
-186 -79 -126 16 -480 46 -172 81 -315 78 -318 -4 -3 -141 31 -306 75 -166 45
-310 81 -322 81 -12 0 -67 -20 -124 -45 -415 -181 -855 -144 -1230 102 -103
68 -289 259 -354 366 -196 317 -245 696 -136 1054 114 379 441 712 816 833
135 43 236 59 394 59 99 1 181 -4 235 -15z"/>
<path d="M28967 8790 c-549 -53 -1029 -380 -1272 -867 -172 -344 -197 -766
-70 -1150 173 -519 650 -927 1205 -1030 148 -27 459 -25 607 5 472 95 876 395
1092 813 65 125 119 274 148 409 26 122 26 469 -1 590 -30 140 -64 239 -127
365 -221 450 -649 765 -1149 849 -120 20 -319 27 -433 16z m308 -271 c196 -24
407 -102 564 -209 275 -186 465 -467 537 -795 21 -99 29 -302 15 -407 -75
-564 -504 -1010 -1061 -1103 -145 -25 -367 -17 -500 18 -442 115 -779 424
-920 845 -75 224 -80 520 -13 752 28 99 88 225 155 327 265 405 747 630 1223
572z"/>
<path d="M33625 8788 c-415 -46 -829 -278 -1073 -601 -225 -297 -326 -623
-308 -997 32 -709 526 -1287 1229 -1439 208 -45 479 -45 702 0 233 47 514 164
700 292 l90 62 3 563 2 562 -185 0 -185 0 0 -454 0 -454 -79 -46 c-360 -208
-780 -243 -1133 -97 -361 151 -626 474 -710 866 -16 77 -16 361 0 440 95 448
421 791 869 912 91 25 113 27 298 27 192 0 205 -1 315 -31 193 -52 368 -138
510 -251 30 -25 60 -49 66 -54 8 -6 47 37 119 129 59 76 113 144 119 152 13
16 -19 44 -149 132 -342 233 -772 335 -1200 287z"/>
<path d="M36890 8793 c-247 -26 -515 -123 -730 -264 -113 -75 -289 -243 -376
-359 -122 -163 -218 -378 -266 -597 -19 -83 -22 -129 -22 -308 0 -180 3 -225
23 -315 102 -477 391 -854 816 -1065 209 -104 368 -148 600 -164 215 -16 426
11 628 80 200 68 435 204 572 331 l69 65 -124 135 -125 135 -70 -57 c-401
-326 -892 -395 -1321 -185 -192 93 -343 225 -460 401 -141 212 -203 440 -191
704 24 516 380 944 890 1071 106 26 323 36 438 20 222 -32 478 -156 642 -310
40 -38 71 -60 77 -55 4 5 60 72 124 149 l116 140 -62 59 c-205 191 -534 340
-845 381 -98 13 -314 17 -403 8z"/>
<path d="M13990 7255 l0 -1515 1040 0 1040 0 0 135 0 135 -890 0 -890 0 0 570
0 570 770 0 770 0 0 135 0 135 -770 0 -770 0 0 540 0 540 860 0 860 0 0 135 0
135 -1010 0 -1010 0 0 -1515z"/>
<path d="M20313 7758 c3 -982 4 -1016 24 -1108 110 -504 417 -808 913 -905
129 -25 399 -31 546 -11 557 74 916 426 998 979 14 89 16 251 16 1081 l0 976
-145 0 -144 0 -4 -982 c-3 -846 -6 -994 -19 -1060 -23 -112 -54 -201 -106
-303 -37 -73 -63 -107 -137 -180 -101 -101 -167 -143 -293 -191 -219 -81 -546
-86 -767 -11 -250 85 -428 257 -516 497 -66 182 -62 115 -66 1223 l-4 1007
-150 0 -150 0 4 -1012z"/>
<path d="M23700 7255 l0 -1515 145 0 145 0 0 1515 0 1515 -145 0 -145 0 0
-1515z"/>
<path d="M24950 7255 l0 -1516 148 3 147 3 3 488 2 487 433 0 c582 0 751 17
952 97 418 165 623 510 602 1012 -11 266 -85 457 -241 619 -145 152 -329 243
-603 299 -65 13 -188 16 -760 20 l-683 4 0 -1516z m1339 1229 c207 -30 353
-97 472 -214 133 -131 191 -285 191 -510 0 -136 -13 -218 -53 -320 -96 -247
-334 -400 -684 -440 -49 -5 -287 -10 -527 -10 l-438 0 0 755 0 755 466 0 c372
0 488 -3 573 -16z"/>
<path d="M14531 4544 c-195 -43 -376 -202 -442 -391 -29 -82 -36 -237 -15
-327 52 -221 241 -404 468 -452 170 -37 389 10 526 113 l32 24 0 220 0 219
-50 0 -50 0 -2 -192 -3 -193 -50 -27 c-176 -97 -381 -93 -541 10 -79 51 -139
121 -183 212 -35 74 -36 77 -36 201 l0 125 42 86 c140 282 485 370 752 191
l64 -43 28 32 c16 18 28 38 29 44 1 34 -176 126 -285 149 -86 18 -199 18 -284
-1z"/>
<path d="M16731 4544 c-169 -45 -261 -159 -249 -308 6 -73 32 -128 85 -177 51
-49 108 -76 297 -139 221 -75 276 -119 284 -229 6 -87 -26 -139 -111 -180
-147 -73 -366 -37 -518 83 -24 20 -47 36 -50 36 -3 0 -17 -21 -30 -46 l-24
-45 40 -35 c59 -50 189 -111 277 -128 227 -46 440 27 521 179 18 33 22 56 22
130 -1 107 -18 147 -89 213 -54 50 -94 69 -271 126 -241 79 -305 131 -305 247
0 51 21 91 65 124 110 84 315 71 517 -33 4 -2 19 20 33 48 l26 51 -63 29
c-141 66 -330 88 -457 54z"/>
<path d="M18782 4545 c-266 -58 -472 -311 -472 -581 0 -257 173 -494 421 -575
106 -35 282 -35 388 0 240 79 404 291 418 541 10 180 -46 322 -176 450 -153
152 -364 211 -579 165z m267 -106 c129 -29 258 -135 323 -265 38 -77 41 -91
46 -183 6 -120 -16 -204 -76 -296 -195 -303 -638 -303 -834 0 -60 92 -82 176
-76 295 4 86 9 107 40 172 106 222 334 332 577 277z"/>
<path d="M22301 4544 c-171 -46 -263 -164 -247 -316 7 -70 32 -121 83 -170 46
-45 121 -79 312 -144 147 -49 203 -80 245 -137 17 -23 21 -43 21 -100 0 -93
-21 -124 -112 -169 -60 -29 -74 -32 -162 -33 -125 0 -216 29 -325 103 -43 29
-79 52 -80 50 -26 -37 -47 -82 -43 -92 11 -29 155 -113 243 -142 75 -25 105
-29 194 -29 152 0 255 34 333 110 65 63 82 107 82 210 0 107 -17 147 -90 214
-55 50 -105 73 -281 130 -198 63 -273 117 -290 207 -23 121 69 204 236 212
116 5 216 -20 342 -86 4 -2 19 20 33 48 l26 51 -73 33 c-40 19 -105 41 -145
50 -88 20 -229 20 -302 0z"/>
<path d="M25535 4550 c-174 -35 -344 -159 -424 -310 -174 -325 -5 -734 350
-851 97 -32 274 -34 359 -5 78 26 182 82 227 121 l38 34 -36 36 -36 37 -49
-38 c-89 -68 -195 -104 -309 -104 -132 0 -259 54 -355 151 -192 195 -186 510
14 697 193 179 455 184 677 13 l26 -21 33 42 33 41 -34 28 c-128 107 -349 162
-514 129z"/>
<path d="M26654 4540 c-380 -99 -569 -503 -396 -845 186 -369 697 -449 991
-154 112 112 162 229 169 390 5 123 -7 190 -49 280 -125 263 -430 404 -715
329z m295 -107 c83 -21 195 -95 249 -166 156 -201 143 -460 -31 -644 -99 -105
-215 -155 -357 -155 -145 0 -257 49 -362 160 -243 254 -148 662 185 793 96 38
197 42 316 12z"/>
<path d="M28002 4540 c-150 -40 -273 -126 -356 -247 -137 -201 -137 -458 -1
-663 135 -203 393 -308 634 -256 89 19 206 75 264 126 l42 38 -34 35 -33 35
-63 -43 c-86 -58 -164 -86 -260 -92 -100 -7 -175 8 -263 53 -81 40 -176 134
-216 212 -126 248 -23 548 229 668 169 81 361 61 514 -51 l60 -44 32 40 c36
46 35 50 -47 105 -141 93 -345 127 -502 84z"/>
<path d="M34032 4545 c-114 -26 -208 -79 -298 -169 -122 -122 -174 -246 -174
-414 0 -166 57 -300 179 -422 398 -395 1082 -95 1048 460 -15 239 -175 445
-409 527 -91 32 -250 40 -346 18z m267 -106 c115 -26 255 -135 313 -245 124
-231 40 -525 -187 -659 -81 -48 -151 -67 -250 -67 -222 0 -412 142 -477 355
-17 57 -20 87 -16 167 4 87 9 107 41 174 105 221 333 330 576 275z"/>
<path d="M37553 4545 c-106 -29 -187 -86 -226 -159 -17 -33 -22 -58 -22 -126
0 -98 17 -140 82 -201 51 -49 108 -76 297 -139 221 -75 276 -119 284 -229 6
-87 -26 -139 -111 -180 -147 -73 -366 -37 -518 83 -24 20 -47 36 -50 36 -3 0
-17 -21 -30 -46 l-24 -45 40 -35 c59 -50 189 -111 277 -128 227 -46 440 27
521 179 31 57 31 202 0 260 -50 94 -125 140 -335 208 -244 80 -308 131 -308
248 0 119 113 187 294 176 90 -5 212 -39 261 -73 29 -21 32 -19 60 36 l26 51
-63 29 c-140 66 -330 88 -455 55z"/>
<path d="M15450 3960 l0 -590 405 0 405 0 0 50 0 50 -347 2 -348 3 -3 223 -2
222 300 0 300 0 0 50 0 50 -297 2 -298 3 0 210 0 210 338 3 337 2 0 50 0 50
-395 0 -395 0 0 -590z"/>
<path d="M17400 4500 l0 -50 195 0 195 0 0 -540 0 -540 60 0 60 0 0 540 0 540
195 0 195 0 0 50 0 50 -450 0 -450 0 0 -50z"/>
<path d="M19800 3960 l0 -590 55 0 55 0 0 190 0 190 208 0 207 0 125 -190 125
-190 68 0 68 0 -54 78 c-30 42 -94 133 -141 202 l-86 124 59 27 c144 66 221
209 208 389 -8 114 -30 165 -101 236 -107 107 -180 124 -543 124 l-253 0 0
-590z m497 480 c104 -12 172 -41 222 -95 102 -111 89 -319 -26 -414 -70 -58
-138 -71 -374 -71 l-209 0 0 288 c0 159 3 292 7 295 10 10 286 8 380 -3z"/>
<path d="M21020 3960 l0 -590 405 0 405 0 0 50 0 50 -347 2 -348 3 -3 223 -2
222 305 0 305 0 0 50 0 50 -302 2 -303 3 0 210 0 210 338 3 337 2 0 50 0 50
-395 0 -395 0 0 -590z"/>
<path d="M23821 4533 c-24 -9 -64 -35 -87 -59 -97 -96 -92 -242 14 -394 l38
-54 -72 -47 c-142 -93 -195 -169 -196 -282 -2 -95 25 -161 91 -228 79 -79 143
-102 272 -97 86 3 102 6 170 40 41 20 99 60 129 88 l54 50 98 -97 98 -97 30
29 30 29 -101 102 -102 102 40 64 c44 69 93 162 93 176 0 5 -17 21 -37 35
l-37 26 -58 -111 c-32 -61 -60 -113 -63 -116 -7 -7 -136 119 -236 230 l-70 76
82 49 c108 64 149 100 183 163 25 46 28 59 24 125 -4 93 -37 145 -117 187 -47
25 -64 28 -140 27 -50 0 -104 -7 -130 -16z m190 -64 c121 -41 145 -182 47
-280 -53 -53 -178 -124 -197 -112 -8 5 -32 41 -53 79 -59 109 -63 193 -11 255
51 60 138 83 214 58z m-8 -685 c86 -89 157 -166 157 -172 0 -20 -124 -112
-180 -133 -72 -28 -162 -28 -221 -2 -144 64 -190 238 -93 351 38 44 151 125
169 120 6 -2 82 -76 168 -164z"/>
<path d="M28840 3960 l0 -590 60 0 60 0 0 190 0 190 204 0 204 0 124 -190 123
-189 68 -1 c62 0 67 2 58 18 -5 9 -68 100 -140 202 l-129 185 36 15 c99 41
157 95 201 189 24 51 26 67 26 176 0 116 -1 123 -33 187 -38 77 -83 120 -167
159 -87 41 -160 49 -442 49 l-253 0 0 -590z m587 466 c79 -25 143 -73 173
-131 22 -43 25 -62 25 -145 0 -78 -4 -102 -22 -135 -29 -54 -78 -99 -138 -127
-47 -21 -65 -23 -277 -26 l-228 -4 0 298 0 297 208 -6 c148 -4 222 -10 259
-21z"/>
<path d="M30060 3960 l0 -590 405 0 405 0 0 50 0 50 -345 0 -345 0 0 225 0
225 300 0 300 0 0 50 0 50 -300 0 -300 0 0 215 0 215 335 0 335 0 0 50 0 50
-395 0 -395 0 0 -590z"/>
<path d="M31496 4518 c-7 -18 -121 -269 -251 -558 -130 -289 -244 -540 -251
-557 l-14 -33 62 0 63 0 69 155 68 155 329 -2 330 -3 67 -150 67 -150 64 -3
c58 -3 63 -1 57 15 -4 10 -123 276 -264 590 l-257 572 -62 1 c-61 0 -63 -1
-77 -32z m218 -418 l135 -305 -140 -3 c-76 -1 -202 -1 -278 0 l-139 3 137 312
c75 171 139 309 143 305 3 -4 67 -144 142 -312z"/>
<path d="M32360 3960 l0 -590 273 0 c198 0 290 4 340 15 220 46 402 223 453
441 22 96 14 236 -19 326 -55 151 -159 269 -294 334 -116 56 -173 64 -480 64
l-273 0 0 -590z m526 480 c189 -24 339 -139 405 -310 26 -69 36 -196 20 -272
-41 -196 -210 -352 -411 -378 -41 -5 -153 -10 -247 -10 l-173 0 0 490 0 490
168 0 c92 0 199 -5 238 -10z"/>
<path d="M35050 3960 l0 -590 55 0 55 0 0 190 0 190 205 0 205 0 127 -190 126
-190 69 0 69 0 -44 63 c-122 171 -238 340 -235 342 2 1 28 13 59 27 142 64
220 216 205 397 -8 98 -44 177 -108 237 -102 96 -186 114 -530 114 l-258 0 0
-590z m497 480 c103 -11 173 -41 219 -92 53 -59 67 -100 68 -194 0 -105 -33
-178 -103 -229 -76 -55 -129 -65 -364 -65 l-207 0 0 288 c0 159 3 292 7 295
10 10 286 8 380 -3z"/>
<path d="M36270 3960 l0 -590 405 0 405 0 0 50 0 50 -347 2 -348 3 -3 223 -2
222 300 0 300 0 0 50 0 50 -297 2 -298 3 0 210 0 210 338 3 337 2 0 50 0 50
-395 0 -395 0 0 -590z"/>
</g>
</svg>
